<?xml version="1.0" encoding="UTF-8"?>
<!DOCTYPE svg PUBLIC "-//W3C//DTD SVG 1.1//EN" "http://www.w3.org/Graphics/SVG/1.1/DTD/svg11.dtd">
<!-- Creator: CorelDRAW -->
<svg xmlns="http://www.w3.org/2000/svg" xml:space="preserve" width="144.697mm" height="136.164mm" version="1.1" style="shape-rendering:geometricPrecision; text-rendering:geometricPrecision; image-rendering:optimizeQuality; fill-rule:evenodd; clip-rule:evenodd"
viewBox="0 0 3080.49 2898.83"
 xmlns:xlink="http://www.w3.org/1999/xlink"
 xmlns:xodm="http://www.corel.com/coreldraw/odm/2003">
 <defs>
  <style type="text/css">
   <![CDATA[
    .fil19 {fill:#007481}
    .fil21 {fill:#13131D}
    .fil4 {fill:#13131F}
    .fil35 {fill:#191924}
    .fil30 {fill:#221F30}
    .fil31 {fill:#262334}
    .fil2 {fill:#262336}
    .fil27 {fill:#262537}
    .fil0 {fill:#272437}
    .fil14 {fill:#2A2936}
    .fil10 {fill:#3A3850}
    .fil1 {fill:#3B3951}
    .fil20 {fill:#444254}
    .fil3 {fill:#4D4B61}
    .fil7 {fill:#4E4C62}
    .fil5 {fill:#545267}
    .fil37 {fill:#58B1A1}
    .fil29 {fill:#6A342B}
    .fil17 {fill:#C7073A}
    .fil16 {fill:#CCCCCC}
    .fil34 {fill:#D3D4D4}
    .fil8 {fill:#D6D6D6}
    .fil22 {fill:#D7D7D7}
    .fil23 {fill:#D9D9D9}
    .fil24 {fill:#E5E5E5}
    .fil26 {fill:#E60E4E}
    .fil36 {fill:#E81557}
    .fil33 {fill:#ED1355}
    .fil11 {fill:#EF1255}
    .fil38 {fill:#EF628D}
    .fil18 {fill:#F3BE00}
    .fil28 {fill:#F49803}
    .fil25 {fill:#F4B500}
    .fil15 {fill:#F4BC01}
    .fil32 {fill:#F6AAAC}
    .fil13 {fill:#F9F9F9}
    .fil9 {fill:#F9FAFA}
    .fil12 {fill:#FBFBFB}
    .fil6 {fill:#FEFEFE}
   ]]>
  </style>
 </defs>
 <g id="Layer_x0020_1">
  <metadata id="CorelCorpID_0Corel-Layer"/>
  <path class="fil0" d="M142.43 2666.28l390.92 0.91 -0.07 150.07 -391.48 -0.64 0.63 -150.34zm-0.37 -310.43l391.31 0.61 0.06 150.32 -391.62 -0.47 0.25 -150.45zm-0.21 -310.95l391.54 0.05 -0.77 150.89 -390.76 -0.18 -0.01 -150.76zm-85.5 352.87l0.17 501.03 561.54 0.02 0.81 -92.11 0.21 -408.48 -0.08 -432.62 -562.79 0.01 0.14 432.14z"/>
  <path class="fil0" d="M2533.22 2666.8l392.02 -0.07 0 150.97 -392.01 0 -0.01 -150.9zm0.04 -310.93l391.83 -0.01 0.1 149.9c-14.39,3.18 -368.96,1.16 -392.1,1.01l0.18 -150.9zm0.02 -310.99l391.96 0.09 0 18.4 0.01 117.16 -0.01 15.29 -11.68 0.16 -364.1 0 -16.24 -0.16 0 -139.66 0.06 -11.27zm477.62 809.59l0.07 -456.24 -0.1 -432.42 -562.3 -0.29 -0.89 933.25 563.19 0.04 0.03 -44.35z"/>
  <path class="fil1" d="M863.45 1362.59c-2.44,19.23 -0.77,64.41 1.74,83.63 7.71,10.86 30.58,7.05 47.61,6.97 18.03,-0.08 36.05,-0.24 54.07,-0.33 34.55,-0.16 73.33,-1.72 107.43,0.11 5.05,-11.07 166.45,-168.57 172.66,-174.79l346.97 -346.98c29.19,-29.28 57.31,-57.22 86.52,-86.52 26.66,-26.74 14.82,-22.22 65.09,-22.22 29.49,0 59.14,-0.3 88.61,0.1 -4.99,9.23 -68.86,70.47 -78.01,79.8 -26.18,26.68 -51.72,52.25 -78.41,78.38 -20.17,19.75 -465.21,462.81 -470.91,472.04l227.19 -0.06c4.47,-7.53 70.23,-71.04 82.4,-83.52 27.63,-28.33 54.95,-54.83 82.97,-82.89l414.95 -414.2c14.17,-14.24 27.59,-27.02 41.41,-41.47 11.37,-11.88 13.92,-8.35 34.07,-8.33 13.52,0.01 28.51,-1.31 41.71,0.88 -8.18,-5.72 -90.95,-1.31 -108.4,-1.31 -108.49,-0 -222.86,-1.73 -329.85,0.04 -146.31,2.41 -294.4,-0.82 -440.76,-1.75 3.9,-5.59 -2.91,-7.73 3.75,-10.53 -30.86,-6.44 -51.38,-3.57 -79.95,-6.29 -49.01,-4.67 -112.37,-5.73 -164.43,-9.51l-80.41 -3.98 -14.43 29.82 219.53 3.62c-1.42,2.81 -0.89,1.52 -2.59,4.78l-12.22 23.77c-1.18,3.34 -0.73,3.67 -1.02,4.6 -0.08,0.24 -0.2,0.76 -0.29,0.98l-11.51 17.75c-11.39,18.86 -4.1,6.87 -10.18,9.69 1.35,5.13 2.27,5.19 -0.13,10.42 -4.73,10.26 -5.1,5.85 -10.68,9.08 1.09,4.21 1.94,1.11 3.56,5.68 -6.12,6.72 -9.86,15.72 -13.86,23.94 -1.63,3.35 -2.37,3.78 -3.16,7.72l2.32 13.9c3.37,-6.51 100,-99.9 113.95,-113.93 21.83,-21.95 15.3,-19.91 39.27,-19.52l171.41 0.93c-4.85,7.51 -56.35,57.36 -67.25,68.29l-335.5 336.84c-6.24,6.44 -125.68,129.99 -135.25,134.39z"/>
  <path class="fil2" d="M2322.28 1575.9c34.56,-8.36 62.46,15.35 68.47,42.45 7.61,34.33 -14.97,60.4 -40.53,67.25 -73.14,19.61 -102.06,-91.77 -27.93,-109.7zm-79.23 121.64l182.05 0.09 -0.01 158.87 -182.04 -0.01 -55.55 0.05 -201.97 0.16 -61.97 -0.32 -866.53 0.16 -284.36 -0.3 -184.31 0.26 -95.52 0.04c-5.19,-2.04 -1.56,-0.33 -4.37,-3.79 -0.3,-0.36 -1.39,-2.92 -1.72,-3.43 -2.11,10.45 3.46,5.66 -2.93,8.55 -37.62,-0.01 -368.22,2.27 -374.03,-1.32 -18.92,-0.01 -37.84,-0 -56.76,-0 -15.45,0 -38.77,-3.43 -47.53,6.09 -8.56,9.31 -6.49,37.45 1.98,44.38 9.87,8.08 34.7,3.91 48.71,4.79l2954.72 -0.3c11.65,-0.03 45.59,1.39 54.64,-0.95 14.05,-3.64 17.75,-24.03 12.98,-41.05 -4.5,-16.05 -24.43,-12.96 -42.38,-12.96 -43.78,0 -262.05,2.16 -278.84,-0.78l21.51 -188.61c14.24,-1.18 17.95,-2.85 17.25,-18.22 -0.64,-14.16 -7.57,-13.85 -20.87,-14.27l-29.25 0.19 -18.07 0 -28.79 -0.02 -43.72 -0.33 -29.2 -0.48 -10.03 0.81 -28.79 -0c-19.52,0.14 -20.26,12.43 -14.88,29.04 6.05,2.75 5.97,2.88 14.84,2.91l21.31 189.73 -180.71 0.7c-0.12,-55.65 0.09,-111.31 -0.12,-166.96 -0.25,-64.14 6.2,-95.44 -34.24,-130.65 -35.85,-31.22 -88.07,-23.4 -120.82,3.55 -37.74,31.05 -29.62,88.59 -29.67,134.39z"/>
  <path class="fil3" d="M1434.03 1452.73l363.15 -0.15c5.03,-9.07 75.99,-77.46 85.34,-86.8 19,-19 248.86,-251.86 258.06,-256.41 3.28,-67.3 -0.13,-181.88 0.26,-259.07 0.07,-14.83 2.43,-21.43 -9.3,-27.09 -13.2,-2.19 -28.18,-0.87 -41.71,-0.88 -20.15,-0.01 -22.7,-3.55 -34.07,8.33 -13.82,14.45 -27.24,27.23 -41.41,41.47l-414.95 414.2c-28.02,28.06 -55.34,54.56 -82.97,82.89 -12.17,12.47 -77.92,75.99 -82.4,83.52z"/>
  <polygon class="fil4" points="56.21,1965.63 619,1965.62 2446.93,1965.51 2448.57,1965.53 3010.87,1965.81 3010.9,1911.51 56.18,1911.81 "/>
  <path class="fil5" d="M817.21 924.37l0.02 146.88 10.14 -19.49c1.84,-4.36 3.32,-5.79 5.32,-9.22 2.2,-3.77 3.27,-7.25 5.19,-10.99 1.44,-2.81 3.74,-6.35 5.31,-9.14 1.62,-2.88 0.95,-1.78 2.49,-4.69l3.23 -5.81c5.51,-10.07 5.43,-18.19 13.81,-19.96 0,61.37 3.67,123.6 -0.19,184.42l0.92 186.23c9.57,-4.4 129.01,-127.94 135.25,-134.39l335.5 -336.84c10.9,-10.93 62.4,-60.78 67.25,-68.29l-171.41 -0.93c-23.97,-0.39 -17.44,-2.43 -39.27,19.52 -13.95,14.03 -110.58,107.42 -113.95,113.93l-2.32 -13.9c0.79,-3.94 1.53,-4.37 3.16,-7.72 4,-8.22 7.74,-17.22 13.86,-23.94 -1.61,-4.58 -2.46,-1.47 -3.56,-5.68 5.58,-3.23 5.95,1.18 10.68,-9.08 2.41,-5.23 1.49,-5.29 0.13,-10.42 6.08,-2.82 -1.21,9.17 10.18,-9.69l11.51 -17.75c0.09,-0.23 0.21,-0.75 0.29,-0.98 0.29,-0.92 -0.16,-1.25 1.02,-4.6l12.22 -23.77c1.69,-3.26 1.17,-1.96 2.59,-4.78l-219.53 -3.62 14.43 -29.82 -98.33 -4.44 -1.68 -0.05c-3.46,8.7 -8.69,12.44 -12.03,25.66 -2.81,11.11 -2.16,23.77 -2.16,35.66 0.01,25.89 -0.2,51.8 -0.08,77.69z"/>
  <path class="fil4" d="M1797.18 1452.58l-363.15 0.15 -227.19 0.06 -132.53 0.19c-34.1,-1.83 -72.88,-0.28 -107.43,-0.11 -18.03,0.09 -36.05,0.25 -54.07,0.33 -17.03,0.08 -39.9,3.89 -47.61,-6.97 -7.23,-4.91 -3.48,-3.4 -5.19,-5.97l-1.28 -2.33c-2.34,11.35 -12.7,25.04 -18.17,37.65 -5.01,11.55 -7.98,12.22 -11.92,20.53l-3.03 7.83c-4.1,8.02 0.67,1.02 -5.99,6.07l-0.31 10.94 1368.32 -0.14 -0.34 -345.55c-11.95,0.09 -36.24,-1.88 -46.33,1.28 -3.29,52.12 -0.19,167.24 -0.19,230.73 0,39.38 7.5,45.61 -32.92,45.52 -51.67,-0.11 -103.34,-0 -155.01,-0 -51.09,0 -104.91,1.63 -155.66,-0.2z"/>
  <path class="fil6" d="M407.67 487.99c0,-8.87 1.65,-10.57 10.46,-8.21 4.32,7.59 2.15,25.9 2.15,35.25 0,13.9 -12.62,15.1 -12.61,0l0 -27.04zm-47.91 -35.12l-5.58 10.24c0.57,-1.82 1.05,-3.86 1.81,-5.36 2.46,-4.85 2.61,-3.63 3.77,-4.88zm178.19 26.01c-6.11,5.55 -17.85,-10.06 -21,-13.21 -6.46,-6.45 -14.98,-10.5 -12.04,-21.38 8.6,-4.68 18.18,8.65 22.38,12.85 3.71,3.71 18.79,14.36 10.66,21.74zm-206.46 -38.41c2.61,11.11 -6.84,16.05 -13.28,22.5 -3.1,3.11 -13.93,17.72 -19.94,12.2 -8.17,-7.5 7.72,-18.84 11.41,-22.53 6.25,-6.27 9.89,-14.09 21.82,-12.17zm77.09 -69.44c-7.92,13.95 -16.74,28.6 -24.68,42.32 -4.52,7.81 -20.29,35.98 -24.14,39.51l40.7 -85.55c-2.7,-6.15 -7.85,-14.75 -3.52,-23.92 4.84,-10.24 9.43,-3.24 11.42,-19.23 1.83,-14.72 3.08,-39.36 6.5,-52.25 3.69,9.73 5.62,39.84 7.14,52.57 1.88,15.84 4.26,6.73 11.22,19.38 4.53,8.25 -3.05,2.6 17.47,11.41 26.53,11.4 57.58,22.83 81.9,34.9 -15.77,-1.15 -72.62,-16.44 -95.45,-21.47 -15.42,-3.4 -12.54,7.18 -28.55,2.31zm-160.8 -23.23c3.34,-3.13 39.79,-3.14 43.16,-0 14.95,13.95 -29.78,10.85 -34.23,10.85 -6.48,0 -15.8,-4.42 -8.93,-10.84zm308.14 -1.76c9.9,0 27.56,-2.28 35.74,2.11l-0.04 8.01c-7.35,3.98 -24.87,2.48 -35.71,2.48 -14.86,0 -15.46,-12.6 0,-12.6zm-249.32 -111.07c4.18,9.04 27.37,21.43 20.05,30.85 -8.3,8.97 -14.39,-8.27 -31.55,-21.46 -13.5,6.98 -34.02,33.26 -43.24,49.5 -20.92,36.82 -19.42,61.05 -24.77,68.33 6.3,59.4 23.41,93 54.59,124.25 27.14,27.2 69.15,52.38 124.62,54.63 77.11,3.12 137.05,-37.65 171.28,-96.3 8.23,-14.1 22.37,-48.75 20.7,-68.08 -1.88,-6.99 0.03,-15.49 -0.73,-22.26 -4.03,-36.19 -38.45,-96.71 -61.86,-107.94 -8.24,4.85 -16.28,21.98 -26.65,16.19 -3.94,-7.27 0.99,-10.55 5.2,-14.62 4.23,-4.09 7.76,-6.64 9.82,-11.22 -5.86,-7.63 -32.14,-20.27 -43.77,-24.71 -18.39,-7.03 -38.35,-11.14 -60.31,-12.09 0.33,8.25 1.26,17.36 -1.34,24.53 -4.39,1.45 -6.98,2.33 -10.61,-2.36l-2.6 -22.22c-21.84,2.02 -36.49,4.45 -55.88,11.36 -10.67,3.8 -39.2,17.44 -42.98,23.63z"/>
  <path class="fil2" d="M1490.03 796.22c-5.62,-19.12 22.72,-24.43 25.02,-7.01 2.51,19.07 -21.38,19.38 -25.02,7.01zm-656.87 -10.8l98.33 4.44 80.41 3.98c52.06,3.77 115.42,4.83 164.43,9.51 28.57,2.72 49.08,-0.14 79.95,6.29 -6.66,2.8 0.15,4.94 -3.75,10.53 146.36,0.93 294.45,4.17 440.76,1.75 107,-1.76 221.36,-0.04 329.85,-0.04 17.45,0 100.22,-4.42 108.4,1.31 11.73,5.65 9.37,12.26 9.3,27.09 -0.39,77.2 3.02,191.77 -0.26,259.07l0.39 67.17c10.09,-3.16 34.38,-1.19 46.33,-1.28 -2.73,-102.61 -0.37,-229.1 -0.14,-335.78 0.04,-20.24 -0.49,-30.87 -9.45,-46.36 -6.79,-11.72 -16.51,-20.3 -29.63,-26.29 -23.98,-10.94 -180.05,-5.72 -218.65,-5.72l-1005.79 0c-15.1,0 -41.39,-1.55 -55.13,1.73 -14.97,3.57 -30.99,13.21 -35.34,22.58z"/>
  <path class="fil7" d="M1074.31 1452.98l132.53 -0.19c5.7,-9.23 450.74,-452.28 470.91,-472.04 26.69,-26.14 52.22,-51.7 78.41,-78.38 9.15,-9.33 73.02,-70.57 78.01,-79.8 -29.47,-0.39 -59.12,-0.1 -88.61,-0.1 -50.27,0 -38.43,-4.52 -65.09,22.22 -29.21,29.3 -57.33,57.24 -86.52,86.52l-346.97 346.98c-6.21,6.21 -167.61,163.72 -172.66,174.79z"/>
  <path class="fil8" d="M1299.96 1629.09l403.37 -0.08 2.27 0.24c86.01,2.85 176.91,0.16 263.47,0.16 68.15,0 128.95,11.72 175.2,-21.7 9.93,-7.17 25.59,-23.32 30.47,-36.92l-569.72 0.15c-0.9,11.79 -3.96,14.39 -16.16,14.82l-146.11 -0.06c-29.35,0 -41.21,4.63 -43.3,-14.71 -93.89,-2.22 -190.55,-0.1 -284.75,-0.1 -47.46,0 -94.93,0 -142.39,0 -27.41,0 -122.34,3.62 -142.08,-1.06l0.49 2.6c12.97,25.49 39.34,48.59 76,55.28 24.37,4.45 220.5,1.7 262.05,1.7 41.01,0 91.33,2.6 131.2,-0.32z"/>
  <path class="fil9" d="M830.21 1569.84c19.73,4.68 114.66,1.06 142.08,1.06 47.46,0 94.93,0 142.39,0 94.2,0 190.86,-2.12 284.75,0.1 1.42,-11.33 4.26,-13.86 16.12,-14.2l146.14 0.09c30.08,0 41.64,-4.56 43.31,14.06l569.72 -0.15c8.62,-11.19 12.5,-33.32 12.9,-49.99l-1368.32 0.14 -1.76 0.23c1.45,13.96 4.05,39.28 12.66,48.67z"/>
  <path class="fil10" d="M1797.18 1452.58c50.75,1.84 104.57,0.2 155.66,0.2 51.67,0 103.35,-0.1 155.01,0 40.42,0.08 32.92,-6.14 32.92,-45.52 0,-63.48 -3.09,-178.61 0.19,-230.73l-0.39 -67.17c-9.19,4.56 -239.06,237.42 -258.06,256.41 -9.35,9.35 -80.31,77.73 -85.34,86.8z"/>
  <path class="fil10" d="M2632.2 2419.69c46.44,-1.46 121.85,0.14 171.41,0.14 8.33,0 26.84,-2.97 32.02,2.67 4.71,5.11 4.91,19.81 -8.59,19.81 -26.62,0 -193.95,2.61 -205.68,-1.92 -3.6,-12.5 -3.66,-20.23 10.84,-20.69zm-99.12 87.08c23.14,0.15 377.72,2.17 392.1,-1.01l-0.1 -149.9 -391.83 0.01 -0.18 150.9z"/>
  <path class="fil10" d="M2623.36 2130.07c-5.24,-6.85 -7.16,-19.9 5.45,-21.21l201.56 0.16c11.04,1.93 8.55,14.96 3.88,21.09 -7.96,3.18 -203.11,3.11 -210.89,-0.04zm-90.14 -73.92l-0 139.66 16.24 0.16 364.1 -0 11.68 -0.16 0.01 -15.29 -0.01 -117.16 -0 -18.4 -391.96 -0.09 -0.06 11.27z"/>
  <path class="fil10" d="M2622.01 2751.44c-11.84,-27.23 16.38,-20.73 35.6,-20.73 26.07,0 173.01,-2.21 177.63,2.2 4.43,4.22 5.12,18.59 -4.82,20.26 -5.9,0.99 -23.32,0.08 -30.42,0.08 -30.26,0 -168.03,2.37 -177.99,-1.81zm-88.78 66.26l392.01 -0 -0 -150.97 -392.02 0.07 0.01 150.9z"/>
  <path class="fil10" d="M271.12 2108.89c40.26,0 129.53,-1.77 164.15,-0.15 12.1,0.57 14.01,11.9 8.65,18.93 -3.81,4.59 -2.03,3.67 -10.42,3.92 -35.04,1.04 -195.78,1.32 -203.12,-2.16 -13.45,-27.79 22.65,-20.54 40.74,-20.54zm-129.26 86.77l390.76 0.18 0.77 -150.89 -391.54 -0.05 0.01 150.76z"/>
  <path class="fil10" d="M228.1 2431.08c0.02,-9.45 2.92,-11.24 12.38,-11.24 37.65,-0.04 177.63,-3.41 204.01,1.79 1.95,6.43 1.87,12.44 0.16,19.08 -11.54,3.75 -176.26,1.61 -204.17,1.61 -9.5,0 -12.4,-1.69 -12.38,-11.23zm-86.29 75.22l391.62 0.47 -0.06 -150.32 -391.31 -0.61 -0.25 150.45z"/>
  <path class="fil10" d="M267.52 2730.71c26.99,0 172.12,-3.2 176.72,3.11 4.72,6.47 2.94,18.49 -7.3,19.5 -8.04,0.8 -21.93,-0.06 -30.62,-0.06 -30.97,0 -166.45,2.42 -177.14,-2.31 -4.64,-28.31 13.07,-20.23 38.35,-20.23zm-125.71 85.91l391.48 0.64 0.07 -150.07 -390.92 -0.91 -0.63 150.34z"/>
  <path class="fil2" d="M2124.51 2582.26l-7.16 -0.68c-3.44,77.17 3.49,148.71 46.58,191.76 17.01,17 44.85,34.65 76.27,42.71 39.76,10.18 72.89,4.8 91.21,-21.59l42.04 -231.68c-77.68,23.51 -163.65,26.08 -248.95,19.48z"/>
  <path class="fil9" d="M2564.8 1035.95c1.41,-10.49 -2.71,-4.17 7.74,-7.65 23.09,-7.7 -2.04,-13.96 26.47,-13.97l0.01 121.64 -19.33 0.02 -0.35 -92.23 -14.54 -0.16 0 -7.64zm56.78 19.81c0,-20.08 0.71,-37.5 19.49,-41.86 19.16,-4.45 33.94,4.19 36.99,21.21 7.93,44.33 -38.61,58.55 -36.56,83.26l35.48 0.62 0.01 16.86 -55.42 0.13c0,-27.51 4.83,-40.73 18.96,-54.05 11.92,-11.23 23.91,-28.22 15.86,-49.83 -18.89,-4.14 -16.35,6.73 -16.36,23.65l-18.44 0.01zm-128.13 125.77l253.33 -0.4 0.06 -200.87 -253.72 -0.18 0.33 201.45z"/>
  <path class="fil2" d="M1299.96 1691.18l-0.49 106.72 406.62 0.78 -0.5 -169.43 -2.27 -0.24c1.02,11.52 2.2,53.04 -1.02,62.01l-402.34 0.16z"/>
  <path class="fil4" d="M2059.5 2793.29l12.52 66.57c2.62,14.2 2.39,18.63 5.76,21.67 15.01,9.94 95.08,16.38 118.39,16.39 21.37,0 106.19,-6.27 118.17,-16.91 7.1,-7.63 11.32,-65.79 16.58,-79.92l0.5 -6.63c-18.32,26.4 -51.46,31.78 -91.21,21.59 -31.42,-8.05 -59.26,-25.71 -76.27,-42.71 -43.09,-43.05 -50.02,-114.59 -46.58,-191.76 -35.64,-3.61 -64.53,-8.81 -98.7,-15.78l40.85 227.49z"/>
  <path class="fil2" d="M227.09 362.19c-3.78,-110.32 85.71,-201.39 197.33,-194.67 80.25,4.83 142.76,57.42 166.22,125.31 4.52,13.06 16.99,73.78 7.64,83.86 1.66,19.33 -12.48,53.98 -20.7,68.08 -34.22,58.65 -94.16,99.42 -171.28,96.3 -55.48,-2.24 -97.49,-27.42 -124.62,-54.63 -31.18,-31.25 -48.29,-64.86 -54.59,-124.25zm-32.46 17.95l3.14 10.06c37.21,209.94 315.75,250.02 411.72,63.07 5.74,-11.17 11.27,-25.16 14.76,-37.53 3.46,-12.23 4.51,-33.74 9.16,-43.84 -5.78,-30.77 6.33,-72.85 -34.87,-135.61 -59.1,-90.04 -173.09,-129.2 -280.18,-79.52 -24.49,11.36 -53.38,34.2 -66.26,49.01 -28.31,32.53 -48.61,71.07 -55.27,117.74 -2.66,18.67 0.27,41.18 -2.2,56.63z"/>
  <path class="fil11" d="M370.09 798.33c-11.51,10.1 -18.73,23.63 -25.31,39.17 -6.42,15.18 -13.43,29.89 -19.65,45.21 -12.64,31.11 -26.26,56.65 -36.9,90.83l-1.23 25.85c2.57,26.63 11.36,46.23 25.6,61.75 12,13.07 30.68,28.27 54.17,34.03l136.46 -311.02c-25.98,-9.41 -38.5,-19.65 -72.36,-15.5 -24.37,2.99 -48.92,16 -60.78,29.69z"/>
  <path class="fil8" d="M1057.02 1856.54l866.53 -0.16 -0.09 -35.55c-3.03,-0.23 -6.33,-0.01 -8.57,-0.24 -8.73,-0.89 -3.51,1.44 -8.81,-2.77 -2.08,4.92 0.82,2.68 -7.19,3.4l-71.58 -1.43c-5.91,0.71 -11.03,0.82 -16.98,0.84 -9.46,0.03 -8.98,1.14 -14.4,-3.02 -2.01,5.47 -4.68,3.7 -12.39,3.57l-102.89 -0.14c-4.09,-0.91 -1.79,1.4 -3.11,-3.28 -6.02,3.95 -7.1,2.88 -16.71,2.85 -8.28,-0.03 -11.09,0.67 -16.94,-2.06 -3.24,5.56 -24.42,2.5 -31.73,2.49l-248.74 -0.03c-47.46,-0.07 -94.93,0 -142.39,0.02l-108.15 0c-9.03,-0.01 -28.56,1.96 -29.88,-2.22 -6.52,2.66 -16.43,1.66 -25.54,1.69l-0.44 36.05z"/>
  <path class="fil8" d="M2103.15 424.11l824.93 0.21 0.24 -30.85 -822.78 -0.05c-3.22,-8.42 -1.51,-19.38 -1.66,-28.82l318.88 -1.07 0 -1.03 -288.44 -0.35 -30.89 0.49 -0.28 61.46z"/>
  <path class="fil8" d="M1091.76 613.7l825.43 0.34 -0.01 -30.95 -824.15 0.06 -0.3 -30.63c-4.26,10.39 -1.06,46.78 -0.97,61.19z"/>
  <polygon class="fil9" points="1917.18,583.09 1917.27,552.44 1914.99,552.42 1679.8,552.16 1675.65,552.29 1563.13,552.31 1498.43,552.43 1447.73,552.31 1411.56,552.18 1124.01,552.32 1092.72,552.52 1093.02,583.15 "/>
  <path class="fil4" d="M1299.96 1691.18l402.34 -0.16c3.22,-8.97 2.05,-50.49 1.02,-62.01l-403.37 0.08 0.01 62.09z"/>
  <path class="fil9" d="M2422.76 363.53l-318.88 1.07c0.15,9.44 -1.56,20.4 1.66,28.82l822.78 0.05 -0.17 -30.76 -121.04 -0.12 -106.45 -0.03 -277.9 0.96z"/>
  <path class="fil4" d="M666.48 1715.13c33.76,-9.61 61.9,14.04 68.6,39.2 9.37,35.2 -13.54,62.99 -39.65,70.06 -71.26,19.31 -102.89,-88.22 -28.95,-109.27zm-78.13 141.36l184.31 -0.26 -0.01 -158.84 -184.27 0.23 -0.03 158.86z"/>
  <path class="fil4" d="M2323.33 1714.36c72.45,-16.06 97.28,93.72 25.43,110.37 -74.4,17.23 -98.49,-94.17 -25.43,-110.37zm-80.28 142.13l182.04 0.01 0.01 -158.87 -182.05 -0.09 0 158.95z"/>
  <path class="fil9" d="M2090.14 2398.83c-8.93,8.45 -27.9,18.49 -34.57,26.91 -0.22,5.56 5.21,11.95 7.9,18.64l-31.74 -24.88 -4.76 -1.35c-1.09,10.28 -3.88,20.06 -3.07,30.11 3.04,11.4 -3.42,5.72 4.63,18.43 24.2,7.76 62.02,9.91 88.34,13.29 75.42,3.72 173.61,8.79 244.57,-10.95l5.2 -14.36 3.4 -7.9c-9.8,-7.26 -28.8,-30.23 -37.51,-34.3 -9.55,0.41 -18.08,21.62 -30.01,28.44l-25.9 -32.62c-8.84,6.24 -12.33,24.57 -20.88,32.9l-9.28 18.73c3.87,5.59 10.68,7.94 17.13,14.45l-43.8 -10.19 13.41 -1.47c-9.11,-1.4 -3.99,-0.77 -6.39,-2.78 1.44,-9.29 8.82,-32.47 3.73,-38.99 -12.25,-1.16 -38.35,7.91 -52.33,10.2 -5.58,7.12 -2.49,7.78 -1.62,22.25 -0.36,-0.34 -0.83,-0.8 -1.05,-1.06l-18.38 -33.63 -3.24 -3.98c-5.37,4.68 -33.99,15.28 -40.12,17.36 -3.33,-7.51 -9.73,-31.65 -11.09,-41.06 -4.99,2.37 -7.88,4.82 -12.59,7.84z"/>
  <path class="fil12" d="M503.23 784.14l-136.46 311.02c-2.66,11.05 -15.16,27.99 -11.43,38.57 3.6,10.2 21.99,16.18 34.32,10.4 9.67,-15.5 21.27,-46.68 29.22,-65.07 5.88,-13.61 27.24,-56.42 27.91,-67.37 10.17,-13.82 44.74,-108.11 51.6,-114.51 7.91,-21.39 18.8,-43.37 28.38,-65.27 6.75,-15.42 26.3,-51.88 25.35,-67.6 -2.74,-7.28 -4.58,-8.03 -12.17,-11.6 -5.95,-2.8 -13.34,-5.48 -19.89,-1.43 -6.15,3.81 -13.3,24.34 -16.84,32.86z"/>
  <path class="fil9" d="M162.35 1390.17c7.64,39.41 39.59,148.24 52.08,196.34l39.49 147.94c16.13,57.4 -0.03,48.54 54.19,48.51l-108.29 -406.28c-7.07,1.18 -13.67,3.81 -20.42,5.57 -3.17,0.83 -7.72,1.55 -10,2.41 -9.34,3.53 -3.89,-0.2 -7.05,5.51z"/>
  <path class="fil2" d="M624.5 1639.78c-4.87,-33.91 19.05,-60.66 46.89,-64.78 76.2,-11.29 90.39,101.17 17.87,111.92 -33.58,4.98 -60.76,-19.21 -64.77,-47.13zm-36.12 57.85l184.27 -0.23c-0.07,-39.13 5.18,-82.23 -12.21,-112.58 -34.39,-60.02 -124.92,-60.64 -159.29,-0.77 -18.08,31.5 -12.76,73.59 -12.77,113.58z"/>
  <polygon class="fil11" points="2700.66,362.57 2807.11,362.6 2825.43,243.61 2682.59,243.69 "/>
  <path class="fil13" d="M1128.7 452.44l247.34 -0.04c13.61,0.02 26.92,1.32 36.81,-5.07 20.58,-13.31 19.17,-42.61 -1.64,-54.04 -10.33,-5.67 -24.33,-3.98 -36.97,-3.98l-245.14 -0.03 0.01 14.46 268.29 0.84c-2.86,6.21 -5.84,4.31 -14.04,4.19l-254.54 -0.1 0.28 9.91 254.25 -0.1c7.78,-0.09 10.7,-0.52 13.77,2.82 -7.76,4.85 -238.09,1.81 -268.33,1.79l0.32 9.91 263.04 0.22c0.5,0.11 1.03,0.29 1.46,0.42l3.62 2.08c-6.69,4.25 -239.98,2.27 -268.51,1.73l-0.01 14.99z"/>
  <path class="fil12" d="M2141.91 351.01l248.93 0.01c16.39,0.02 50.74,1.42 49.98,-32.31 -0.75,-33.36 -36.18,-30.82 -51.79,-30.8l-247.09 0 0.04 14.34 238.04 0c23.08,-0 27.11,-3.36 30.73,5.08l-268.77 0.01 -0.06 9.82 203.85 0c9.17,0 61.25,-3.21 64.57,3.2 -7.73,3.61 -238.46,1.4 -268.38,1.4l0.13 9.8 268.66 0.72c-3.11,6.65 -5.3,4.67 -14.42,4.5 -80.72,-1.47 -173.31,-0.11 -254.4,-0.11l-0.02 14.33z"/>
  <path class="fil9" d="M2185.36 213.98c33.48,0.47 260.39,-3.63 270.82,1.84 -3.56,4.96 -7.28,3.3 -14.79,3.19l-256.08 -0.07 0.01 9.79c75.63,1.54 162.02,0.11 239.77,0.11 14.86,0 27.42,-2.66 30.84,3.2 -9.35,4.04 -239.45,1.52 -270.62,1.4l-0.01 9.9 257.93 -0.12c7.69,-0.08 9.48,-1.68 12.89,3.25 -10.6,5.48 -237.37,1.47 -270.77,1.84l-0.02 14.4 248.76 0c16.86,0.01 51.57,2.74 52.48,-30.68 0.94,-34.48 -34.31,-32.46 -50.68,-32.44l-250.57 -0.01 0.03 14.41z"/>
  <path class="fil13" d="M1130.49 540.74l247.36 -0.01c16.45,0.01 51.63,2.11 51.85,-31.23 0.08,-11.92 -6.6,-21.31 -14.35,-26.56 -13.6,-9.2 -99.49,-5.31 -118.61,-5.31 -55.25,0 -110.62,0.34 -165.84,-0.02l-0.33 14.5 268.84 0.01c-2.74,6.86 -3.24,5.11 -12.41,5.03l-256.1 -0.16 -0.21 9.92 252.6 -0.06c17.46,-0.26 13.51,0.37 15.98,2.77 -7.76,4.85 -237.84,1.79 -268.37,1.79l-0.21 9.92 261.64 -0.05c5.13,0.71 -1.43,-0.78 3.12,0.66 4.87,1.54 0.82,-0.75 3.77,2.1 -8.07,5.94 -237.61,2.25 -268.33,2.25l-0.41 14.44z"/>
  <path class="fil4" d="M109.78 1856.55c5.81,3.59 336.42,1.31 374.03,1.32 6.38,-2.89 0.82,1.9 2.93,-8.55 0.98,-8.28 -2.45,-24 -8.36,-27.5 -14.14,-3.61 -71.46,-1.31 -90.09,-1.31 -30.04,0 -60.08,0 -90.12,0 -58.86,0 -120.25,1.68 -178.79,-0.2 -6.14,7.17 -11.41,24.07 -9.59,36.24z"/>
  <path class="fil14" d="M817.55 1521.17l1.76 -0.23 0.31 -10.94c6.67,-5.05 1.89,1.95 5.99,-6.07l3.03 -7.83c3.94,-8.31 6.91,-8.98 11.92,-20.53 5.47,-12.62 15.83,-26.3 18.17,-37.65l1.28 2.33c1.71,2.57 -2.04,1.06 5.19,5.97 -2.52,-19.22 -4.19,-64.4 -1.74,-83.63l-0.92 -186.23c-7.69,-2.92 -35.31,-1.19 -45.16,-0.44l0.18 345.25z"/>
  <polygon class="fil11" points="1498.52,486.82 1498.54,487.18 1498.75,515.49 1498.43,552.43 1563.13,552.31 1562.99,341.78 1499.14,341.18 "/>
  <path class="fil15" d="M1590.62 359.73l85.03 192.56 4.15 -0.13c11.52,-7.47 46.96,-18.21 54.6,-26.32l-85.3 -191.49 -58.48 25.37z"/>
  <path class="fil2" d="M338.84 1783.06c-42.24,-0.01 -84.76,0.05 -127.2,0.05 -21.36,-0 -39.56,-1.81 -57.91,6.09 -13.74,5.92 -29.29,18.52 -34.37,31.11 58.54,1.88 119.93,0.2 178.79,0.2 30.04,0 60.08,0 90.12,0 18.64,0 75.96,-2.3 90.09,1.31 -9.24,-25.37 -32.56,-33.05 -64.73,-39.52 -8.28,3.48 -62.19,1.88 -74.81,0.76z"/>
  <path class="fil11" d="M2493.11 980.07l253.72 0.18 0 -52.47 -26.58 -0 0.33 17.6c6.74,6.93 2.78,14.66 -1.16,17.32 -7.92,5.36 -13.25,-0.1 -18.57,-3.47 -1.07,-8 -0.61,-10.1 3.04,-14.9l0.1 -16.5 -167.61 -0.07 0.27 17.94c3.35,3.44 5.26,6.19 2.04,12.71 -1.77,3.58 -5.27,6.74 -10.81,6.61 -11.59,-0.27 -14.13,-12.69 -8.32,-20.31l0.14 -16.93 -26.61 -0.02 0 52.29z"/>
  <path class="fil16" d="M227.09 362.19c5.34,-7.28 3.85,-31.51 24.77,-68.33 9.22,-16.24 29.74,-42.51 43.24,-49.5 -8.89,-13.46 2.2,-14.42 11.5,-9.39 3.77,-6.19 32.3,-19.82 42.98,-23.63 19.39,-6.91 34.03,-9.34 55.88,-11.36l2.6 22.22c0.18,-9.74 -0.14,-18.44 -0.49,-28.11 -0.41,-11.02 -1.73,-17.35 10.74,-13.69 3.11,5.91 2.3,12.3 1.71,19.63 21.96,0.95 41.92,5.06 60.31,12.09 11.62,4.45 37.91,17.08 43.77,24.71 0.17,-0.1 16.59,-15.85 18.72,-5.82 0.43,2.04 3.66,0.82 -0.87,8.26 -1.55,2.54 -3.77,3.54 -6.22,7.21 23.4,11.23 57.83,71.75 61.86,107.94 0.76,6.77 -1.15,15.27 0.73,22.26 9.35,-10.08 -3.12,-70.8 -7.64,-83.86 -23.47,-67.9 -85.97,-120.48 -166.22,-125.31 -111.61,-6.72 -201.11,84.35 -197.33,194.67z"/>
  <path class="fil17" d="M260.32 955c6.48,5.85 15.7,17.16 27.91,18.54 10.64,-34.18 24.27,-59.72 36.9,-90.83 6.22,-15.33 13.23,-30.03 19.65,-45.21 6.58,-15.54 13.8,-29.07 25.31,-39.17 -25.33,-5.87 -35.61,-13.86 -63.2,-0.52 -18.33,8.86 -26.82,22.16 -35.6,41.85 -6.87,15.42 -18.56,38.82 -22.91,54.59 -7.95,28.8 3.05,41.76 11.94,60.76z"/>
  <polygon class="fil2" points="1498.52,486.82 1499.14,341.18 1499.05,311.5 1498.43,273.48 1447.67,273.96 1447.25,484.39 1447.24,486.82 "/>
  <path class="fil4" d="M1163.45 1814.82c7.42,-3.65 30.53,-4.33 40.21,2.15 8.16,-10.42 31.39,-2.12 39.07,-2.02 1,0.01 30.94,-8.71 39.03,2.02 11.82,-7.02 33.31,-6.21 42.67,0.01 8.86,-11.41 33.17,-0.32 42.06,-2.85 9.8,-2.79 30.08,-4.94 36.06,2.84 11.76,-7.01 33.36,-6.2 42.63,0.01 8.09,-10.46 30.64,-2.07 39.05,-2.05 2.98,0.01 -0.64,0.25 3.03,-0.79 9.79,-2.79 30.12,-4.95 36.05,2.84 11.36,-6.84 32.17,-6.66 42.65,0 8.9,-11.45 32.84,-0.22 42.07,-2.84 9.25,-2.63 33.43,-6.01 35.87,4.4 5.85,2.73 8.66,2.04 16.94,2.06 9.61,0.03 10.69,1.1 16.71,-2.85 1.6,-6.32 3.68,-5.36 11.96,-5.54 32.29,-0.69 19.47,5.08 30.09,1.87 8.92,-2.7 25.05,-2.7 33.95,-0.05 10.7,3.17 -2.31,0.92 11.8,-1.4 9.35,-1.54 27.84,-2.56 30.59,4.97 5.42,4.16 4.94,3.05 14.4,3.02 5.95,-0.02 11.07,-0.13 16.98,-0.84 -0.37,-8.72 4.85,-7.38 12.74,-7.47 -7.08,-16.73 -37.27,-14.35 -58.46,-14.35 -19.88,0 -57.87,-2.13 -75.51,0.72l-406.62 -0.78c-24.88,0.29 -49.93,0.06 -74.84,0.06 -24.25,0 -52.51,-2.61 -61.19,16.86z"/>
  <path class="fil9" d="M151.51 1231.84c23.42,1.19 22.52,6.56 37.19,13.29l93.77 -237.11 -37.37 -13.8 -93.6 237.62z"/>
  <path class="fil2" d="M2389.48 2461.22l-28.04 7.8c-70.95,19.74 -169.15,14.67 -244.57,10.95 1.26,0.98 1.11,3.33 10.63,3.37 -0.88,5.91 -2.12,12.84 -2.82,18.68 -1.03,8.68 0.72,11.1 -5.66,13.09l3.52 1.64c63.8,6.35 143.47,4.89 206.76,-8.36l57.34 -15.66 5.66 -31.01 -2.83 -0.5z"/>
  <path class="fil2" d="M2120.28 2532.14l-2.02 32.14 -9.82 -0.51c3.19,2.63 4.13,1.85 9.65,2.29 44.73,3.99 90.88,5.15 135.74,2.08 22,-1.51 43.18,-4.07 64.43,-7.98 21.17,-3.89 38.95,-10.27 58.49,-14.53l6.57 -35.57c-42.42,11.62 -74.89,19.89 -122.23,23.44 -45.85,3.44 -95.38,3 -140.8,-1.35z"/>
  <path class="fil2" d="M2185.33 199.57l250.57 0.01c16.37,-0.01 51.62,-2.04 50.68,32.44 -0.91,33.43 -35.62,30.69 -52.48,30.68l-248.76 -0c-8.46,2.57 -7.27,6.14 -3.46,12.49l237.95 0.9c18.37,-1.27 39.27,2.26 54.94,-5.11 32.4,-15.23 32.3,-61.42 3.66,-77.87 -15.69,-9.01 -35.43,-6.57 -55.15,-6.57 -32.79,0 -229.66,-3.18 -243.3,2.04 -1.01,8.51 -1.76,8.33 5.35,10.98z"/>
  <path class="fil11" d="M1125.89 389.17l3.2 0.11 245.14 0.03c12.64,-0 26.64,-1.7 36.97,3.98 20.81,11.43 22.22,40.73 1.64,54.04 -9.89,6.39 -23.2,5.09 -36.81,5.07l-247.34 0.04 -2.51 0.05c-5.23,1.6 -1.8,-0.62 -5.77,2.92 0.13,6.57 -0.03,6.36 4.64,9.69l282.87 -0.64c15.48,-9.19 21,-7.75 29.06,-25.49 6.84,-15.05 3.64,-32.87 -4.24,-43.75 -18.66,-25.75 -53.31,-19 -90.95,-19 -29.96,0 -206.82,-2.04 -220.46,1.22l-1.39 8.55 5.95 3.16z"/>
  <path class="fil10" d="M2312.35 1636.17c-6.32,-32.65 40.98,-37.84 46.17,-10.56 6.26,32.89 -40.85,38.03 -46.17,10.56zm9.93 -60.27c-74.12,17.93 -45.21,129.31 27.93,109.7 25.57,-6.86 48.14,-32.92 40.53,-67.25 -6,-27.1 -33.9,-50.81 -68.47,-42.45z"/>
  <path class="fil10" d="M2312.35 1774.97c-6.27,-32.15 40.5,-39.67 46.12,-10.56 6.34,32.87 -40.78,37.94 -46.12,10.56zm10.98 -60.6c-73.06,16.2 -48.97,127.6 25.43,110.37 71.85,-16.64 47.02,-126.43 -25.43,-110.37z"/>
  <path class="fil10" d="M674.12 1608.05c32.34,-8.29 40.81,38.75 12.77,45.71 -32.41,8.04 -39.86,-38.77 -12.77,-45.71zm-49.63 31.73c4.01,27.92 31.19,52.11 64.77,47.13 72.52,-10.74 58.33,-123.2 -17.87,-111.92 -27.85,4.13 -51.77,30.87 -46.89,64.78z"/>
  <path class="fil10" d="M674.21 1746.94c32.32,-8.16 40.59,38.66 12.67,45.56 -32.61,8.05 -40.42,-38.55 -12.67,-45.56zm-7.73 -31.8c-73.94,21.04 -42.31,128.58 28.95,109.27 26.11,-7.07 49.02,-34.86 39.65,-70.06 -6.7,-25.16 -34.85,-48.81 -68.6,-39.2z"/>
  <path class="fil15" d="M1127.67 477.5l3.23 0.11c55.22,0.36 110.59,0.02 165.84,0.02 19.12,0 105.01,-3.89 118.61,5.31 7.75,5.24 14.42,14.63 14.35,26.56 -0.22,33.33 -35.4,31.24 -51.85,31.23l-247.36 0.01 -2.48 0.1c-4.64,1.95 -2.04,0.1 -5.56,3.26l1.56 8.22 287.55 -0.14c17.03,-8.87 31.88,-18.13 31.12,-44.35 -0.54,-18.53 -11.49,-32.36 -27.14,-39.5 -2.81,-1.28 -1.3,-0.43 -3.87,-1.72l-3.74 -2.15 -282.87 0.64c-3.79,5.18 -5.19,8.32 2.61,12.39z"/>
  <path class="fil18" d="M2139.21 287.85l2.73 0.06 247.09 0c15.61,-0.01 51.04,-2.55 51.79,30.8 0.76,33.73 -33.59,32.33 -49.98,32.31l-248.93 -0.01 -2.7 0.11c-6.84,1.73 -6.27,3.84 -4.89,11.03l288.44 0.35c16.87,-7.2 31.67,-19.89 31.12,-43.93 -0.52,-22.91 -15.7,-37.12 -34.05,-42.49l-237.95 -0.9 -47.58 0.4c-1.5,9.53 -1.96,9.88 4.91,12.25z"/>
  <path class="fil19" d="M2649.07 175.87l99.15 -0.24 0.53 -76.98c2.37,-4.3 0.82,-2.1 4.24,-3.16 0.06,-0.02 4.53,-0.92 6.47,-1.49l0.35 81.67 98.87 0.86c-6.24,-3.31 -84.23,-1.28 -98.3,-1.28l-0.14 -35.75c35.35,7.53 69.02,-24.95 78.19,-44.88 -15.23,-0.74 -30.64,-1.43 -45.51,2.4 -17.77,4.57 -21.32,9.32 -32.04,19.12 -0.7,-5.22 -1.05,-12.34 -0.76,-17.62 0.9,-16.98 14.76,-10.45 12.59,-42.95 -0.98,-14.7 -11.3,-47.28 -19.07,-55.57 -12.92,21.59 -32.4,74.67 -5.49,92.43l-0.43 47.37c-19.93,-21.64 -42.37,-22.88 -78.24,-21.69 6.74,13.85 19.53,24.94 30.52,33.68 13.35,10.62 26.37,15.18 47.72,11.4l-0.04 12.08 -98.6 0.6z"/>
  <path class="fil11" d="M143.39 1262.56c30.69,-12.38 47.22,34.59 18.14,45.94 -30.17,11.78 -50.09,-33.05 -18.14,-45.94zm4.8 76.67c8.34,-0.04 13.75,-0.32 21.42,-2.83 3.95,-1.29 5.64,-2.11 8.76,-3.93 5.15,-3 2.97,-2.66 8.12,-4.45 7.63,-11.63 18.08,-17.24 19.15,-40.27 1.01,-21.81 -9.05,-31.07 -16.94,-42.61 -14.67,-6.73 -13.78,-12.1 -37.19,-13.29 -67.54,3.64 -73.6,97.11 -3.32,107.39z"/>
  <polygon class="fil11" points="2677.43,209.85 2830.64,209.76 2858.7,209.87 2858.68,176.53 2759.81,175.67 2748.22,175.63 2649.07,175.87 2648.69,209.96 "/>
  <path class="fil20" d="M817.23 1071.25l0.14 104.66c9.85,-0.75 37.47,-2.48 45.16,0.44 3.85,-60.82 0.19,-123.04 0.19,-184.42 -8.38,1.77 -8.31,9.9 -13.81,19.96l-3.23 5.81c-1.55,2.91 -0.88,1.82 -2.49,4.69 -1.56,2.78 -3.86,6.32 -5.31,9.14 -1.92,3.74 -2.99,7.22 -5.19,10.99 -2,3.43 -3.48,4.86 -5.32,9.22l-10.14 19.49z"/>
  <path class="fil8" d="M2003.07 1823.38c-7.24,7.27 -15.4,19.27 -17.54,33.32l201.97 -0.16c-2.76,-10.99 -13.97,-26.57 -20.07,-29.99 -2.97,8.38 -6.33,9.78 -16.57,11.35 -46.96,7.2 -86.59,-15.21 -103.69,-18.28 -21.06,-3.79 -26.62,1.48 -44.11,3.76z"/>
  <path class="fil4" d="M230.38 2129.43c7.34,3.48 168.07,3.2 203.12,2.16 8.39,-0.25 6.61,0.67 10.42,-3.92 5.36,-7.02 3.45,-18.36 -8.65,-18.93 -34.61,-1.62 -123.88,0.15 -164.15,0.15 -18.09,0 -54.2,-7.25 -40.74,20.54z"/>
  <path class="fil21" d="M240.48 2442.31c27.91,0 192.63,2.14 204.17,-1.61 1.72,-6.64 1.79,-12.65 -0.16,-19.08 -26.39,-5.21 -166.37,-1.83 -204.01,-1.79 -9.46,0 -12.36,1.8 -12.38,11.24 -0.02,9.54 2.88,11.23 12.38,11.23z"/>
  <path class="fil21" d="M2621.36 2440.38c11.73,4.54 179.07,1.92 205.68,1.92 13.5,0 13.3,-14.7 8.59,-19.81 -5.19,-5.63 -23.69,-2.67 -32.02,-2.67 -49.56,0 -124.97,-1.6 -171.41,-0.14 -14.5,0.46 -14.44,8.19 -10.84,20.69z"/>
  <polygon class="fil17" points="2682.59,243.69 2825.43,243.61 2830.64,209.76 2677.43,209.85 "/>
  <path class="fil4" d="M229.17 2750.94c10.69,4.73 146.17,2.31 177.14,2.31 8.69,0 22.58,0.86 30.62,0.06 10.24,-1.02 12.03,-13.03 7.3,-19.5 -4.6,-6.3 -149.73,-3.11 -176.72,-3.11 -25.28,-0 -42.99,-8.07 -38.35,20.23z"/>
  <path class="fil4" d="M2622.01 2751.44c9.96,4.18 147.73,1.81 177.99,1.81 7.1,0 24.51,0.91 30.42,-0.08 9.94,-1.67 9.25,-16.04 4.82,-20.26 -4.62,-4.41 -151.56,-2.2 -177.63,-2.2 -19.22,-0 -47.44,-6.5 -35.6,20.73z"/>
  <path class="fil4" d="M2623.36 2130.07c7.78,3.15 202.93,3.21 210.89,0.04 4.66,-6.14 7.16,-19.17 -3.88,-21.09l-201.56 -0.16c-12.61,1.32 -10.68,14.37 -5.45,21.21z"/>
  <path class="fil9" d="M2003.07 1823.38c17.5,-2.28 23.05,-7.55 44.11,-3.76 17.1,3.07 56.73,25.49 103.69,18.28 10.23,-1.57 13.6,-2.97 16.57,-11.35 -3.46,-7.13 -21.33,-18.02 -32.41,-22.86 -13.85,-6.04 -30.38,-9.17 -46.93,-9.98 -34.27,-1.68 -71.89,10.05 -85.02,29.67z"/>
  <path class="fil13" d="M1083 1818.79c1.32,4.18 20.85,2.21 29.88,2.22l108.15 -0c47.47,-0.01 94.93,-0.09 142.39,-0.02l248.74 0.03c7.31,0.01 28.5,3.07 31.73,-2.49 -2.44,-10.41 -26.63,-7.03 -35.87,-4.4 -9.23,2.63 -33.17,-8.61 -42.07,2.84 -10.47,-6.66 -31.29,-6.84 -42.65,-0 -5.93,-7.8 -26.26,-5.64 -36.05,-2.84 -3.67,1.05 -0.05,0.8 -3.03,0.79 -8.41,-0.02 -30.96,-8.41 -39.05,2.05 -9.27,-6.21 -30.87,-7.03 -42.63,-0.01 -5.98,-7.77 -26.26,-5.63 -36.06,-2.84 -8.88,2.53 -33.2,-8.55 -42.06,2.85 -9.36,-6.22 -30.85,-7.03 -42.67,-0.01 -8.09,-10.73 -38.03,-2.01 -39.03,-2.02 -7.69,-0.1 -30.91,-8.4 -39.07,2.02 -9.68,-6.48 -32.79,-5.8 -40.21,-2.15 -3.49,2.05 -7.43,-4.69 -30.88,-2.45 -6,0.57 -8.44,2.37 -9.66,2.53 -4.05,0.53 -0.5,-0.62 -8.23,-2.11 -4.07,-0.78 -8.45,-0.5 -12.62,-0.52 -10.61,-0.04 -16.93,-2.41 -19.06,6.53z"/>
  <path class="fil22" d="M1128.01 540.83l2.48 -0.1 0.41 -14.44c30.71,0 260.26,3.69 268.33,-2.25 -2.95,-2.85 1.1,-0.56 -3.77,-2.1 -4.55,-1.44 2.01,0.05 -3.12,-0.66l-261.64 0.05 0.21 -9.92c30.54,0 260.61,3.06 268.37,-1.79 -2.47,-2.41 1.48,-3.04 -15.98,-2.77l-252.6 0.06 0.21 -9.92 256.1 0.16c9.16,0.08 9.66,1.83 12.41,-5.03l-268.84 -0.01 0.33 -14.5 -3.23 -0.11 0.34 63.34z"/>
  <path class="fil4" d="M2007.46 2497.07c23.47,5.19 89.6,21.93 111.57,18.04 6.38,-1.99 4.63,-4.41 5.66,-13.09 0.7,-5.84 1.94,-12.77 2.82,-18.68 -9.52,-0.03 -9.37,-2.39 -10.63,-3.37 -26.32,-3.38 -64.14,-5.53 -88.34,-13.29l-24.15 -4.96 -3 -1.23c-1.93,3.01 -0.62,-1.97 -0.99,3.37 -0.24,3.4 4.01,30.46 7.06,33.21z"/>
  <path class="fil18" d="M2122.54 2516.75l-2.26 15.4c45.41,4.35 94.95,4.79 140.8,1.35 47.34,-3.55 79.81,-11.82 122.23,-23.44l3.34 -17.33 -57.34 15.66c-63.29,13.25 -142.97,14.71 -206.76,8.36z"/>
  <path class="fil23" d="M2139.22 351.12l2.7 -0.11 0.02 -14.33c81.09,0 173.68,-1.36 254.4,0.11 9.12,0.17 11.31,2.15 14.42,-4.5l-268.66 -0.72 -0.13 -9.8c29.93,0 260.66,2.21 268.38,-1.4 -3.32,-6.42 -55.4,-3.2 -64.57,-3.2l-203.85 0 0.06 -9.82 268.77 -0.01c-3.62,-8.44 -7.65,-5.09 -30.73,-5.08l-238.04 0 -0.04 -14.34 -2.73 -0.06 0 63.27z"/>
  <path class="fil22" d="M1126.19 452.5l2.51 -0.05 0.01 -14.99c28.52,0.53 261.82,2.51 268.51,-1.73l-3.62 -2.08c-0.43,-0.13 -0.96,-0.31 -1.46,-0.42l-263.04 -0.22 -0.32 -9.91c30.24,0.02 260.57,3.05 268.33,-1.79 -3.07,-3.34 -5.99,-2.91 -13.77,-2.82l-254.25 0.1 -0.28 -9.91 254.54 0.1c8.2,0.12 11.19,2.02 14.04,-4.19l-268.29 -0.84 -0.01 -14.46 -3.2 -0.11 0.3 63.33z"/>
  <path class="fil18" d="M2118.09 2566.07l-0.82 12.82 7.24 3.37c85.31,6.6 171.27,4.02 248.95,-19.48l3.28 -17.14c-19.53,4.26 -37.32,10.64 -58.49,14.53 -21.25,3.91 -42.43,6.47 -64.43,7.98 -44.86,3.08 -91.01,1.91 -135.74,-2.08z"/>
  <path class="fil2" d="M2621.58 1055.76l18.44 -0.01c0.01,-16.92 -2.53,-27.79 16.36,-23.65 8.05,21.61 -3.93,38.6 -15.86,49.83 -14.13,13.32 -18.96,26.55 -18.96,54.05l55.42 -0.13 -0.01 -16.86 -35.48 -0.62c-2.05,-24.71 44.49,-38.93 36.56,-83.26 -3.04,-17.02 -17.83,-25.66 -36.99,-21.21 -18.77,4.36 -19.49,21.78 -19.49,41.86z"/>
  <path class="fil4" d="M2016.12 2548.25c12.8,6 77.91,17.55 92.32,15.52l9.82 0.51 2.02 -32.14c-40.16,-2.89 -73.33,-10.64 -111.17,-18.43l7.01 34.54z"/>
  <path class="fil4" d="M1605.01 1570.95l-205.57 0.05c2.1,19.34 13.95,14.71 43.3,14.71l146.11 0.06c12.2,-0.43 15.26,-3.03 16.16,-14.82z"/>
  <path class="fil0" d="M400.46 367.33c2.67,1.27 4.87,2.46 8.12,3.71 16.01,4.87 13.14,-5.71 28.55,-2.31 22.83,5.03 79.69,20.32 95.45,21.47 -24.32,-12.07 -55.37,-23.51 -81.9,-34.9 -20.53,-8.82 -12.94,-3.17 -17.47,-11.41 -6.95,-12.65 -9.33,-3.54 -11.22,-19.38 -1.51,-12.72 -3.45,-42.83 -7.14,-52.57 -3.43,12.89 -4.67,37.53 -6.5,52.25 -1.99,15.99 -6.58,8.99 -11.42,19.23 -4.33,9.17 0.82,17.77 3.52,23.92z"/>
  <path class="fil2" d="M1399.43 1570.99l205.57 -0.05c-1.67,-18.61 -13.23,-14.06 -43.31,-14.06l-146.14 -0.09c-11.87,0.33 -14.71,2.87 -16.12,14.2z"/>
  <path class="fil12" d="M466.52 1012.86c49.73,-4.57 75.64,-56.07 44.82,-99.9l-44.82 99.9z"/>
  <path class="fil2" d="M2564.8 1035.95l-0 7.64 14.54 0.16 0.35 92.23 19.33 -0.02 -0.01 -121.64c-28.51,0.01 -3.38,6.27 -26.47,13.97 -10.45,3.49 -6.33,-2.83 -7.74,7.65z"/>
  <polygon class="fil15" points="1563.18,296.25 1563.52,301.21 1577.76,331.6 1636.38,306.15 1621.66,271.49 "/>
  <polygon class="fil11" points="1499.05,311.5 1562.97,310.89 1563.52,301.21 1563.18,296.25 1563.01,273.62 1499.87,273.02 1498.43,273.48 "/>
  <polygon class="fil2" points="1447.67,245.99 1498.63,246.6 1499.57,202.32 1447.28,202.35 1447.27,205 "/>
  <path class="fil24" d="M446.79 1011.7l19.74 1.16 44.82 -99.9c-2.82,-4.63 -2.49,-4.29 -6.77,-7.73 -5.94,-4.79 -5.17,-0.82 -6.18,-8.04 -6.87,6.4 -41.44,100.69 -51.6,114.51z"/>
  <polygon class="fil9" points="1577.76,331.6 1590.62,359.73 1649.1,334.36 1636.38,306.15 "/>
  <path class="fil17" d="M143.39 1262.56c-31.96,12.89 -12.04,57.72 18.14,45.94 29.08,-11.35 12.56,-58.33 -18.14,-45.94z"/>
  <polygon class="fil25" points="2580.73,1568.64 2587.34,1634.84 2616.13,1634.84 2608.84,1565.73 "/>
  <polygon class="fil9" points="1499.14,341.18 1562.99,341.78 1562.97,310.89 1499.05,311.5 "/>
  <polygon class="fil26" points="2619.74,1568.85 2626.16,1634.04 2655.36,1634.52 2647.93,1566.31 "/>
  <path class="fil8" d="M148.19 1339.23l14.16 50.94c3.16,-5.71 -2.29,-1.97 7.05,-5.51 2.28,-0.86 6.83,-1.58 10,-2.41 6.74,-1.76 13.35,-4.39 20.42,-5.57l-13.32 -48.67c-5.15,1.79 -2.97,1.45 -8.12,4.45 -3.13,1.82 -4.81,2.63 -8.76,3.93 -7.66,2.51 -13.08,2.78 -21.42,2.83z"/>
  <polygon class="fil27" points="1447.73,552.31 1498.43,552.43 1498.75,515.49 1447.39,515.03 "/>
  <path class="fil28" d="M2009.11 2513.72c37.84,7.79 71.01,15.54 111.17,18.43l2.26 -15.4 -3.52 -1.64c-21.96,3.89 -88.1,-12.85 -111.57,-18.04 -1.06,4.28 0.42,10.13 1.65,16.65z"/>
  <path class="fil4" d="M674.21 1746.94c-27.75,7.01 -19.94,53.61 12.67,45.56 27.92,-6.9 19.65,-53.72 -12.67,-45.56z"/>
  <path class="fil4" d="M674.12 1608.05c-27.08,6.94 -19.64,53.74 12.77,45.71 28.04,-6.95 19.56,-53.99 -12.77,-45.71z"/>
  <path class="fil4" d="M2312.35 1774.97c5.34,27.38 52.46,22.31 46.12,-10.56 -5.62,-29.11 -52.39,-21.59 -46.12,10.56z"/>
  <path class="fil4" d="M2312.35 1636.17c5.32,27.47 52.43,22.33 46.17,-10.56 -5.19,-27.28 -52.49,-22.09 -46.17,10.56z"/>
  <polygon class="fil25" points="2699.08,1634.85 2727.87,1634.87 2727.9,1575.52 2699.08,1575.57 "/>
  <polygon class="fil25" points="2755.18,1580.31 2745.94,1634.86 2775.19,1634.67 2784.21,1581.59 2754.95,1576.95 "/>
  <path class="fil28" d="M2018.65 2565.8c34.17,6.96 63.06,12.17 98.7,15.78l7.16 0.68 -7.24 -3.37 0.82 -12.82c-5.52,-0.44 -6.46,0.34 -9.65,-2.29 -14.41,2.03 -79.52,-9.53 -92.32,-15.52l2.54 17.55z"/>
  <path class="fil11" d="M338.84 1783.06c12.62,1.12 66.52,2.72 74.81,-0.76 1.6,-25.06 -16.77,-19.95 -37.98,-19.95 -22.91,-0 -37.67,-5.21 -36.83,20.71z"/>
  <path class="fil22" d="M2185.36 248.3c33.39,-0.37 260.16,3.65 270.77,-1.84 -3.41,-4.92 -5.19,-3.33 -12.89,-3.25l-257.93 0.12 0.05 4.96z"/>
  <path class="fil22" d="M2185.31 218.94l256.08 0.07c7.51,0.11 11.23,1.77 14.79,-3.19 -10.43,-5.47 -237.34,-1.36 -270.82,-1.84l-0.05 4.96z"/>
  <path class="fil9" d="M1447.39 515.03l51.36 0.46 -0.21 -28.31c-12.28,0.02 -41.3,-1.83 -51.33,1.3l0.18 26.55z"/>
  <polygon class="fil9" points="1447.67,273.96 1498.43,273.48 1499.87,273.02 1498.63,246.6 1447.67,245.99 "/>
  <path class="fil8" d="M245.11 994.22l37.37 13.8 4.52 -8.63 1.23 -25.85c-12.21,-1.38 -21.43,-12.7 -27.91,-18.54l-15.21 39.22z"/>
  <path class="fil23" d="M2185.32 233.44c31.17,0.12 261.26,2.64 270.62,-1.4 -3.42,-5.87 -15.98,-3.2 -30.84,-3.2 -77.74,0 -164.14,1.43 -239.77,-0.11l-0.01 4.71z"/>
  <path class="fil13" d="M1677.55 1817.74c1.32,4.68 -0.98,2.37 3.11,3.28l102.89 0.14c7.72,0.12 10.38,1.89 12.39,-3.57 -2.75,-7.53 -21.24,-6.51 -30.59,-4.97 -14.11,2.32 -1.1,4.58 -11.8,1.4 -8.89,-2.64 -25.02,-2.65 -33.95,0.05 -10.63,3.21 2.2,-2.56 -30.09,-1.87 -8.28,0.18 -10.36,-0.79 -11.96,5.54z"/>
  <path class="fil8" d="M2153.94 2414.69c-8.13,-1.39 -26.92,-11.15 -33.45,-15.63l-17.75 -8.07c1.36,9.41 7.76,33.55 11.09,41.06 6.12,-2.08 34.75,-12.68 40.12,-17.36z"/>
  <path class="fil8" d="M2255.74 2441.18c-5.55,-1.25 -7.86,-4.65 -11.65,-9.35 -2.92,-3.63 -8.14,-9.4 -10.35,-12.98l-3.19 2.06c5.09,6.52 -2.3,29.7 -3.73,38.99 2.4,2.01 -2.72,1.39 6.39,2.78l-13.41 1.47 43.8 10.19c-6.45,-6.51 -13.26,-8.86 -17.13,-14.45l9.28 -18.73z"/>
  <path class="fil29" d="M2748.22 175.63l11.59 0.04 -0.35 -81.67c-1.94,0.57 -6.42,1.48 -6.47,1.49 -3.43,1.06 -1.87,-1.14 -4.24,3.16l-0.53 76.98z"/>
  <path class="fil8" d="M2332.53 2412.46c-2.82,-3.07 0.26,-1.3 -4.93,-2.5l-50.98 -1.69 25.9 32.62c11.93,-6.82 20.46,-28.03 30.01,-28.44z"/>
  <path class="fil9" d="M2519.72 927.8l-0.14 16.93 2.35 8.22c11.78,0.35 12.52,2.3 14.74,-7.23l-0.27 -17.94c-0,-8.88 1.24,-19.05 -1.56,-26.79 -7.13,-1.66 -6.62,-2.01 -13.54,0.43 -2.86,7.69 -1.58,17.65 -1.58,26.38z"/>
  <path class="fil9" d="M2704.01 927.84l-0.1 16.5c0.76,10.01 3.79,10.03 14.09,7.79l2.6 -6.75 -0.33 -17.6 -0.52 -27.06 -14.55 -0.09 -1.19 27.21z"/>
  <path class="fil13" d="M1827.33 1819.78l71.58 1.43c8,-0.72 5.11,1.52 7.19,-3.4 -3.12,-6.28 -4.01,-5.4 -12.58,-5.61 -32.96,-0.78 -16.57,4.92 -32.8,0.92 -6.43,-1.58 -13.9,-0.78 -20.65,-0.82 -7.89,0.09 -13.11,-1.25 -12.74,7.47z"/>
  <path class="fil2" d="M504.9 444.29c-2.94,10.88 5.58,14.92 12.04,21.38 3.15,3.15 14.89,18.76 21,13.21 8.13,-7.38 -6.95,-18.03 -10.66,-21.74 -4.2,-4.2 -13.78,-17.53 -22.38,-12.85z"/>
  <path class="fil2" d="M331.49 440.48c-11.93,-1.93 -15.57,5.9 -21.82,12.17 -3.69,3.7 -19.58,15.03 -11.41,22.53 6.01,5.52 16.84,-9.09 19.94,-12.2 6.44,-6.45 15.89,-11.39 13.28,-22.5z"/>
  <path class="fil30" d="M524.07 236.84c-2.06,4.58 -5.59,7.14 -9.82,11.22 -4.22,4.07 -9.14,7.35 -5.2,14.62 10.37,5.79 18.42,-11.34 26.65,-16.19 2.45,-3.67 4.68,-4.67 6.22,-7.21 4.53,-7.45 1.3,-6.23 0.87,-8.26 -2.13,-10.03 -18.55,5.72 -18.72,5.82z"/>
  <path class="fil31" d="M295.1 244.37c17.17,13.2 23.25,30.43 31.55,21.46 7.31,-9.42 -15.87,-21.82 -20.05,-30.85 -9.3,-5.03 -20.39,-4.07 -11.5,9.39z"/>
  <path class="fil0" d="M256.7 358.66c4.45,0 49.18,3.1 34.23,-10.85 -3.36,-3.14 -39.81,-3.12 -43.16,0 -6.87,6.42 2.44,10.84 8.93,10.84z"/>
  <path class="fil0" d="M555.91 358.66c10.83,0 28.35,1.5 35.71,-2.48l0.04 -8.01c-8.18,-4.39 -25.84,-2.11 -35.74,-2.11 -15.46,0 -14.86,12.6 0,12.6z"/>
  <path class="fil0" d="M407.67 487.99l-0 27.04c-0.01,15.1 12.61,13.9 12.61,0 -0,-9.35 2.17,-27.66 -2.15,-35.25 -8.81,-2.35 -10.46,-0.66 -10.46,8.21z"/>
  <path class="fil30" d="M408.04 222.21c3.63,4.69 6.23,3.81 10.61,2.36 2.6,-7.17 1.67,-16.28 1.34,-24.53 0.59,-7.32 1.4,-13.72 -1.71,-19.63 -12.46,-3.66 -11.14,2.67 -10.74,13.69 0.36,9.67 0.67,18.36 0.49,28.11z"/>
  <path class="fil9" d="M1490.03 796.22c3.64,12.37 27.53,12.06 25.02,-7.01 -2.3,-17.42 -30.64,-12.11 -25.02,7.01z"/>
  <path class="fil11" d="M359.76 452.87c3.86,-3.53 19.63,-31.7 24.14,-39.51 7.93,-13.72 16.75,-28.37 24.68,-42.32 -3.26,-1.25 -5.45,-2.45 -8.12,-3.71l-40.7 85.55z"/>
  <polygon class="fil2" points="2758.11,1566.51 2786.04,1570.69 2789.32,1555.96 2760.58,1550.97 "/>
  <polygon class="fil2" points="2699.21,1564.51 2727.75,1564.52 2727.92,1549.7 2699.07,1549.69 "/>
  <path class="fil32" d="M2626.61 1547.6l-6.86 21.25 28.19 -2.54c-2.42,-5.49 -7.59,-15.04 -11.92,-19.74l-9.41 1.03z"/>
  <path class="fil32" d="M2580.73 1568.64l28.11 -2.91c-2.98,-6.57 -6.03,-12.59 -12.06,-18.2l-9.33 -0.26 -6.72 21.37z"/>
  <path class="fil11" d="M2699.07 1549.69l28.85 0.01c-0.47,-11.19 -2.73,-13.34 -14.41,-13.31 -11.29,0.03 -14.06,2.56 -14.43,13.3z"/>
  <path class="fil33" d="M2760.58 1550.97l28.73 4.99 -0.07 -10.28c-3.6,-2.98 -9.28,-5.02 -16.35,-5.3 -10.44,-0.41 -10.52,2.38 -12.31,10.58z"/>
  <polygon class="fil28" points="2699.08,1575.57 2727.9,1575.52 2727.75,1564.52 2699.21,1564.51 "/>
  <polygon class="fil28" points="2755.18,1580.31 2754.95,1576.95 2784.21,1581.59 2786.04,1570.69 2758.11,1566.51 "/>
  <path class="fil8" d="M2361.44 2469.03l28.04 -7.8c-2.21,-2.57 0.56,-1.19 -4.23,-2.95 -0.93,-0.34 -4.8,-1.04 -6.03,-1.26 -4.4,-0.82 -8.88,-1.64 -12.58,-2.34l-5.2 14.36z"/>
  <path class="fil8" d="M2178.22 2431.12l-6.14 0.42c-4.58,-6.56 -7.53,-10.2 -14.9,-12.86l18.38 33.63c0.22,0.26 0.69,0.71 1.05,1.06 -0.87,-14.47 -3.97,-15.13 1.62,-22.25z"/>
  <path class="fil22" d="M2055.57 2425.73l-23.83 -6.24 31.74 24.88c-2.7,-6.68 -8.12,-13.08 -7.9,-18.64z"/>
  <path class="fil34" d="M2005.41 2458.04l-1.03 3.68 24.15 4.96c-8.05,-12.71 -1.58,-7.03 -4.63,-18.43 -2.76,3.33 -1.66,1.71 -2.29,7.57l-16.21 2.22z"/>
  <path class="fil35" d="M2587.45 1547.27l9.33 0.26c-0.66,-5.59 -2.21,-6.73 -6.04,-10.77l-3.29 10.51z"/>
  <polygon class="fil36" points="2626.61,1547.6 2636.02,1546.56 2631.03,1537.24 "/>
  <path class="fil37" d="M2004.39 2461.72l1.03 -3.68c-7.74,0.3 -2.85,-0.4 -4.03,2.45l3 1.23z"/>
  <path class="fil38" d="M359.76 452.87c-1.16,1.25 -1.31,0.03 -3.77,4.88 -0.77,1.51 -1.25,3.55 -1.81,5.36l5.58 -10.24z"/>
 </g>
</svg>
